<svg width="110" height="102" viewBox="0 0 110 102" fill="none" xmlns="http://www.w3.org/2000/svg">
<path d="M55.0031 46.7499C44.8778 46.7499 36.6695 39.1388 36.6695 29.75C36.6695 20.3612 44.8778 12.75 55.0031 12.75C65.1279 12.75 73.3361 20.3612 73.3361 29.75C73.3361 39.1388 65.1279 46.7499 55.0031 46.7499Z" fill="#F14141"/>
<path d="M13.753 85.844C15.5295 65.5599 33.2838 55.2473 54.9234 55.2473C76.868 55.2473 94.8974 64.9936 96.2403 85.8473C96.294 86.678 96.2403 89.2471 92.7973 89.2471C75.8133 89.2471 50.5758 89.2471 17.0844 89.2471C15.9349 89.2471 13.6562 86.9489 13.753 85.844Z" fill="#F14141"/>
</svg>
